# xmcd CD database file
#
# Track frame offsets:
#	150
#	8245
#	20535
#	37123
#	54996
#	66248
#	82055
#	97611
#	116232
#	127455
#	145612
#	161005
#	176163
#	189335
#	203835
#	220919
#
# Disc length: 3171 seconds
#
# Revision: 3
# Processed by: cddbd v1.5.2PL0 Copyright (c) Steve Scherf et al.
# Submitted via: CDex 1.77
#
DISCID=e70c6110
DTITLE=Martina McBride - The Classic Christmas Album
DYEAR=2013
DGENRE=Christmas
TTITLE0=Let It Snow! Let It Snow! Let It Snow!
TTITLE1=Silver Bells
TTITLE2=The Christmas Song (Chestnuts Roasting On An Open Fire)
TTITLE3=Do You Hear What I Hear
TTITLE4=Hark! The Herald Angels Sing
TTITLE5=Away In A Manger
TTITLE6=Winter Wonderland
TTITLE7=Have Yourself A Merry Little Christmas
TTITLE8=Blue Christmas (w Elvis Presley)
TTITLE9=O Come All Ye Faithful
TTITLE10=Silent Night
TTITLE11=White Christmas
TTITLE12=Baby It's Cold Outside (w Dean Martin)
TTITLE13=I'll Be Home For Christmas
TTITLE14=What Child Is This
TTITLE15=O Holy Night
EXTD=YEAR: 2013
EXTT0=
EXTT1=
EXTT2=
EXTT3=
EXTT4=
EXTT5=
EXTT6=
EXTT7=
EXTT8=
EXTT9=
EXTT10=
EXTT11=
EXTT12=
EXTT13=
EXTT14=
EXTT15=
PLAYORDER=
